<svg width="512" height="512" viewBox="0 0 512 512" fill="none" xmlns="http://www.w3.org/2000/svg" role="img" aria-labelledby="title desc">
  <title id="title">Esy Text Editor</title>
  <desc id="desc">A minimal black and white logo built from the word ESY.</desc>
  <rect width="512" height="512" rx="112" fill="#070707"/>
  <rect x="48" y="48" width="416" height="416" rx="88" stroke="#F5F5F5" stroke-width="16"/>
  <path d="M132 164H312V204H178V240H284V278H178V348H312V388H132V164Z" fill="#F5F5F5"/>
  <path d="M344 164H390L286 272V388H246V272L144 164H192L266 244L344 164Z" fill="#F5F5F5"/>
  <path d="M164 164H214L256 226L298 164H348L278 262L350 388H300L256 320L212 388H162L234 262L164 164Z" fill="#F5F5F5"/>
</svg>
